<svg xmlns="http://www.w3.org/2000/svg" version="1.1" xmlns:xlink="http://www.w3.org/1999/xlink" xmlns:svgjs="http://svgjs.dev/svgjs" width="1000" height="1125" viewBox="0 0 1000 1125"><g transform="matrix(1,0,0,1,1.7053025658242404e-13,0)"><svg viewBox="0 0 320 360" data-background-color="#ffffff" preserveAspectRatio="xMidYMid meet" height="1125" width="1000" xmlns="http://www.w3.org/2000/svg" xmlns:xlink="http://www.w3.org/1999/xlink"><g id="tight-bounds" transform="matrix(1,0,0,1,0,0)"><svg viewBox="0 0 320 360" height="360" width="320"><g><svg></svg></g><g><svg viewBox="0 0 320 360" height="360" width="320"><g><path xmlns="http://www.w3.org/2000/svg" d="M20.961 227.22l3.726 4.658-1.863-6.056c-0.466-2.795-3.726 0.466-1.863 1.398M25.153 224.425c1.397 2.329 2.795 4.658 2.795 6.987 0 3.261 2.795 4.658 5.123 5.589-3.261-3.726-5.124-13.974-7.918-12.576M204.017 26.929c7.918 0 15.371-0.932 23.756 0.931 20.495 5.124 37.729 15.371 49.374 29.811l32.606 52.169c1.397 13.042 4.192 27.482 3.726 43.319 3.261 0 2.795-4.658 6.521-5.59-3.726 9.316-5.59 20.961-6.521 34.469-2.329-7.453 0-18.632 0.466-24.687-3.261 5.124-5.124 1.397-5.124-0.932 0.466-3.726-1.397-3.261-2.795-4.658-5.124-4.658-8.384-9.782-12.11-17.7 2.329-6.055 2.795-14.905-4.658-19.563-2.329-1.397-5.124-3.726-6.521-7.453-1.863-5.124-5.124-11.179-4.193-19.097 0.466-2.329-6.987 5.124-11.179 1.863-18.166-12.576-36.332-27.016-58.224-39.127-11.645 0-20.029-4.192-24.221-9.316-3.726-4.658-0.932-10.713 4.658-11.179 3.261 0 6.987-0.932 9.782 0.932 0.466-1.863 2.329-4.192 4.657-4.192M157.904 16.215l0.932 0.466c4.658 0.932 6.987 7.453 12.11 5.124 0 3.261 0.466 6.521-0.466 8.85-1.397 3.726-5.59 3.726-8.85 3.726-31.208-1.863-49.374 11.179-68.471 22.358-5.124 3.261-10.713 5.59-14.906 9.782-20.029 18.632-41.921 35.866-47.045 70.335l-4.192 38.195c-0.466 4.192-5.124 8.384-4.192 13.508l3.26 22.824c-3.261-3.261-5.124 0.932-4.192 2.795 0.466 1.397 2.329 6.055 5.124 1.863 3.726 6.987 7.453 20.495 12.576 26.55 15.837 18.632 36.332 35.4 53.101 52.169 4.192-0.932 7.453-0.932 8.384-3.727 1.397 2.795-1.397 5.59-3.726 6.056 7.453 4.658 15.837 8.85 27.016 9.781 14.44 0.932 27.948 3.261 40.524 6.522 6.521-1.863 13.042-2.795 20.029-3.261 2.329 0 3.726-3.726 6.521-4.658l0.466-4.658c2.795 4.192 2.329-1.397 0.466-4.192 3.261 2.795 4.192 5.124 5.589 6.987 0-1.397 3.726-6.521 3.727-0.466l0.931-6.055c1.397-0.932 1.863 5.124 3.261 0.931 1.397-4.192 4.192-0.932 6.987-2.329-0.932 1.863-0.466 5.59 2.794 3.261l3.727-3.261c2.329 5.59 6.055 3.261 7.918 2.329 20.495-13.042 40.99-28.413 60.553-43.784l-0.466 6.055 2.329-7.453c2.329 2.329 4.192 0.466 5.124-0.931 2.795-4.658 6.521-9.316 12.577-13.508-7.453 20.029-16.303 35.866-27.482 48.908l-4.658 5.59c0 3.261-0.932 7.453-4.658 7.918-1.863 0.466-5.59-0.932-8.384 1.863-1.397 1.863 3.261 5.59-0.466 2.795-3.261-2.329-6.521 0-10.248 0.932-2.795 0.932 1.863 3.726 2.795 5.589 0.932 1.863 1.863 3.726 1.398 6.056l-5.124-5.59c-6.055 3.261-9.782 9.316-14.906 13.974-2.329 1.863-1.397 5.124-1.397 7.918-3.261 0-6.987-0.932-8.85 0.932-1.397 1.863-0.932 4.658-0.932 7.453-4.658-0.466-5.124-7.453-9.315-6.056-4.192 0.932-8.85 1.397-12.577 3.727 2.795 5.59-4.658 2.329-3.726 3.26-6.987-4.192-13.042-7.453-20.495-4.658-15.837-5.124-35.4-2.795-49.84-0.931 0-2.329 0.466-4.658-0.466-5.124-0.932 2.329-3.726 1.397-3.26 1.397-8.85-6.055-17.7-9.782-27.016-14.905-8.384 0.932-16.303-3.261-18.632-5.59-6.521-6.055-13.974-2.795-20.029-4.192-13.042-3.261-17.7-16.769-19.098-26.084-0.932-4.658-4.658-6.521-6.055-6.056-6.055-19.563-15.371-37.263-22.824-55.429-1.863-4.658-1.397-9.316-1.397-14.44 2.329 0.932 4.658 0.466 4.192-2.794-2.329-15.371-7.918-27.016-13.974-38.195 3.261-15.837 3.726-34.469 11.179-48.443 6.521-12.576 18.632-19.098 27.016-29.811 2.795-3.726 2.795-8.85 5.59-12.11 9.316-9.316 18.632-19.098 28.879-27.482 4.658-3.726 10.247 0 17.234-1.397 2.329-8.384 11.645-15.837 20.495-13.508 3.726 0.932 11.179-8.85 13.508-9.782 3.726-1.397 1.863 3.726 1.863 6.987 8.85-6.987 20.961-10.713 32.14-14.906" fill="#ee3e38" fill-rule="nonzero" stroke="none" stroke-width="1" stroke-linecap="butt" stroke-linejoin="miter" stroke-miterlimit="10" stroke-dasharray="" stroke-dashoffset="0" font-family="none" font-weight="none" font-size="none" text-anchor="none" style="mix-blend-mode: normal" data-fill-palette-color="tertiary"></path></g><g transform="matrix(1,0,0,1,110.91999999999999,90)"><svg viewBox="0 0 98.16000000000001 180" height="180" width="98.16000000000001"><g><svg viewBox="0 0 98.16000000000001 180" height="180" width="98.16000000000001"><g><svg viewBox="0 0 98.16000000000001 180" height="180" width="98.16000000000001"><g><svg viewBox="0 0 98.16000000000001 180" height="180" width="98.16000000000001"><g id="textblocktransform"><svg viewBox="0 0 98.16000000000001 180" height="180" width="98.16000000000001" id="textblock"><g><svg viewBox="0 0 98.16000000000001 180" height="180" width="98.16000000000001"><g transform="matrix(1,0,0,1,0,0)"><svg width="98.16000000000001" viewBox="1.0499999523162842 -25 20.450000762939453 37.5" height="180" data-palette-color="#ee3e38"><path d="M10.85 12.5Q6.5 12.5 3.78 10.73 1.05 8.95 1.05 5.85L1.05 5.85Q1.05 2.3 4.95-0.35L4.95-0.35Q2.65-1.45 2.65-3.7L2.65-3.7Q2.65-4.85 3.35-5.73 4.05-6.6 5.35-7.1L5.35-7.1Q3.5-8.4 2.5-10.6 1.5-12.8 1.5-15.45L1.5-15.45Q1.5-18.15 2.55-20.33 3.6-22.5 5.58-23.75 7.55-25 10.2-25L10.2-25Q13.4-25 15.6-23.2L15.6-23.2Q17.55-25 19.75-25L19.75-25Q20.4-25 21-24.9L21-24.9 20.55-21.4Q20.05-21.5 19.55-21.5L19.55-21.5Q18.5-21.5 17.45-21.05L17.45-21.05Q18.9-18.7 18.9-15.45L18.9-15.45Q18.9-12.75 17.85-10.53 16.8-8.3 14.83-6.98 12.85-5.65 10.2-5.65L10.2-5.65Q8.8-5.65 7.7-6L7.7-6Q6.75-5.6 6.75-4.85L6.75-4.85Q6.75-4.2 7.4-3.83 8.05-3.45 9.7-2.95L9.7-2.95 13.15-1.9Q16.25-0.95 18.03-0.03 19.8 0.9 20.65 2.18 21.5 3.45 21.5 5.35L21.5 5.35Q21.5 8.75 18.55 10.63 15.6 12.5 10.85 12.5L10.85 12.5ZM10.2-9.1Q12.35-9.1 13.55-10.83 14.75-12.55 14.75-15.4L14.75-15.4Q14.75-18.1 13.55-19.8 12.35-21.5 10.2-21.5L10.2-21.5Q8.05-21.5 6.85-19.83 5.65-18.15 5.65-15.4L5.65-15.4Q5.65-12.55 6.85-10.83 8.05-9.1 10.2-9.1L10.2-9.1ZM11.15 8.95Q13.85 8.95 15.48 8.1 17.1 7.25 17.1 5.6L17.1 5.6Q17.1 4.25 16.1 3.48 15.1 2.7 12.45 1.9L12.45 1.9 8.45 0.7Q5.05 2.85 5.05 5.2L5.05 5.2Q5.05 7.05 6.68 8 8.3 8.95 11.15 8.95L11.15 8.95Z" opacity="1" transform="matrix(1,0,0,1,0,0)" fill="#ee3e38" class="wordmark-text-0" data-fill-palette-color="primary" id="text-0"></path></svg></g></svg></g></svg></g></svg></g><g></g></svg></g></svg></g></svg></g></svg></g><defs></defs></svg><rect width="320" height="360" fill="none" stroke="none" visibility="hidden"></rect></g></svg></g></svg>